<svg width="672" height="425" viewBox="0 0 672 425" fill="none" xmlns="http://www.w3.org/2000/svg">
<g filter="url(#filter0_d_0_173)">
<rect x="7" y="7" width="657.638" height="410.833" rx="13.7008" fill="white"/>
</g>
<g filter="url(#filter1_d_0_173)">
<path d="M7 20.7008C7 13.134 13.1341 7 20.7008 7H650.937C658.504 7 664.638 13.134 664.638 20.7008V50.8222H7V20.7008Z" fill="#00252E"/>
</g>
<rect x="56.3228" y="20.6944" width="137.008" height="16.4333" rx="3.4252" fill="#E1E8EE"/>
<rect x="598.874" y="22.0639" width="21.9213" height="2.73889" rx="1.36944" fill="#D8D8D8"/>
<rect x="598.874" y="27.5417" width="21.9213" height="2.73889" rx="1.36944" fill="#D8D8D8"/>
<rect x="598.874" y="33.0194" width="21.9213" height="2.73889" rx="1.36944" fill="#D8D8D8"/>
<ellipse cx="89.2047" cy="134.358" rx="32.8819" ry="32.8667" fill="url(#paint0_linear_0_173)"/>
<rect x="160.449" y="109.708" width="78.7795" height="10.9556" rx="2.05512" fill="#E1E8EE"/>
<rect x="160.449" y="131.619" width="274.016" height="5.47778" rx="2.05512" fill="#E1E8EE"/>
<rect x="160.449" y="142.575" width="251.181" height="5.47778" rx="2.05512" fill="#E1E8EE"/>
<rect x="160.449" y="153.531" width="228.346" height="5.47778" rx="2.05512" fill="#E1E8EE"/>
<ellipse cx="475.567" cy="134.358" rx="8.22047" ry="8.21667" fill="#A7B9C8"/>
<ellipse cx="519.409" cy="134.358" rx="8.22047" ry="8.21667" fill="#A7B9C8"/>
<ellipse cx="497.488" cy="134.358" rx="8.22047" ry="8.21667" fill="#A7B9C8"/>
<ellipse cx="541.331" cy="134.358" rx="8.22047" ry="8.21667" fill="#A7B9C8"/>
<ellipse cx="563.252" cy="134.358" rx="8.22047" ry="8.21667" fill="#A7B9C8"/>
<ellipse cx="87.1496" cy="225.426" rx="30.8268" ry="30.8125" fill="url(#paint1_linear_0_173)"/>
<rect x="158.394" y="200.776" width="78.7795" height="10.9556" rx="2.05512" fill="#E1E8EE"/>
<rect x="158.394" y="222.688" width="274.016" height="5.47778" rx="2.05512" fill="#E1E8EE"/>
<rect x="158.394" y="233.643" width="251.181" height="5.47778" rx="2.05512" fill="#E1E8EE"/>
<rect x="158.394" y="244.599" width="228.346" height="5.47778" rx="2.05512" fill="#E1E8EE"/>
<ellipse cx="473.512" cy="225.426" rx="8.22047" ry="8.21667" fill="#A7B9C8"/>
<ellipse cx="517.354" cy="225.426" rx="8.22047" ry="8.21667" fill="#A7B9C8"/>
<ellipse cx="495.433" cy="225.426" rx="8.22047" ry="8.21667" fill="#A7B9C8"/>
<ellipse cx="87.1496" cy="323.342" rx="30.8268" ry="30.8125" fill="url(#paint2_linear_0_173)"/>
<rect x="158.394" y="298.692" width="78.7795" height="10.9556" rx="2.05512" fill="#E1E8EE"/>
<rect x="158.394" y="320.603" width="274.016" height="5.47778" rx="2.05512" fill="#E1E8EE"/>
<rect x="158.394" y="331.558" width="251.181" height="5.47778" rx="2.05512" fill="#E1E8EE"/>
<rect x="158.394" y="342.514" width="228.346" height="5.47778" rx="2.05512" fill="#E1E8EE"/>
<ellipse cx="473.512" cy="323.342" rx="8.22047" ry="8.21667" fill="#A7B9C8"/>
<ellipse cx="517.354" cy="323.342" rx="8.22047" ry="8.21667" fill="#A7B9C8"/>
<ellipse cx="495.433" cy="323.342" rx="8.22047" ry="8.21667" fill="#A7B9C8"/>
<ellipse cx="539.276" cy="323.342" rx="8.22047" ry="8.21667" fill="#A7B9C8"/>
<defs>
<filter id="filter0_d_0_173" x="0" y="0" width="671.638" height="424.833" filterUnits="userSpaceOnUse" color-interpolation-filters="sRGB">
<feFlood flood-opacity="0" result="BackgroundImageFix"/>
<feColorMatrix in="SourceAlpha" type="matrix" values="0 0 0 0 0 0 0 0 0 0 0 0 0 0 0 0 0 0 127 0" result="hardAlpha"/>
<feOffset/>
<feGaussianBlur stdDeviation="3.5"/>
<feColorMatrix type="matrix" values="0 0 0 0 0 0 0 0 0 0.145098 0 0 0 0 0.180392 0 0 0 0.181839 0"/>
<feBlend mode="normal" in2="BackgroundImageFix" result="effect1_dropShadow_0_173"/>
<feBlend mode="normal" in="SourceGraphic" in2="effect1_dropShadow_0_173" result="shape"/>
</filter>
<filter id="filter1_d_0_173" x="0" y="0" width="671.638" height="57.8222" filterUnits="userSpaceOnUse" color-interpolation-filters="sRGB">
<feFlood flood-opacity="0" result="BackgroundImageFix"/>
<feColorMatrix in="SourceAlpha" type="matrix" values="0 0 0 0 0 0 0 0 0 0 0 0 0 0 0 0 0 0 127 0" result="hardAlpha"/>
<feOffset/>
<feGaussianBlur stdDeviation="3.5"/>
<feColorMatrix type="matrix" values="0 0 0 0 0 0 0 0 0 0.145098 0 0 0 0 0.180392 0 0 0 0.181839 0"/>
<feBlend mode="normal" in2="BackgroundImageFix" result="effect1_dropShadow_0_173"/>
<feBlend mode="normal" in="SourceGraphic" in2="effect1_dropShadow_0_173" result="shape"/>
</filter>
<linearGradient id="paint0_linear_0_173" x1="19.4475" y1="106.902" x2="59.6532" y2="200.104" gradientUnits="userSpaceOnUse">
<stop stop-color="#FAD961"/>
<stop offset="1" stop-color="#FF52C1"/>
</linearGradient>
<linearGradient id="paint1_linear_0_173" x1="56.3228" y1="194.614" x2="56.3228" y2="256.239" gradientUnits="userSpaceOnUse">
<stop stop-color="#00C7FA"/>
<stop offset="1" stop-color="#007DFA"/>
</linearGradient>
<linearGradient id="paint2_linear_0_173" x1="39.8928" y1="311.395" x2="77.6147" y2="379.963" gradientUnits="userSpaceOnUse">
<stop stop-color="#FF52C1"/>
<stop offset="1" stop-color="#9952FF"/>
</linearGradient>
</defs>
</svg>
