<svg width="232" height="363" viewBox="0 0 232 363" fill="none" xmlns="http://www.w3.org/2000/svg">
<g filter="url(#filter0_d_0_217)">
<path fill-rule="evenodd" clip-rule="evenodd" d="M6.78741 18.1136C6.78741 11.6566 12.0218 6.42223 18.4788 6.42223H214.309C220.766 6.42223 226 11.6566 226 18.1136V345.309C226 351.766 220.766 357 214.309 357H18.4788C12.0218 357 6.78741 351.766 6.78741 345.309V18.1136Z" fill="white"/>
</g>
<g filter="url(#filter1_d_0_217)">
<path fill-rule="evenodd" clip-rule="evenodd" d="M6.78741 18.1136C6.78741 11.6566 12.0218 6.42223 18.4788 6.42223H214.309C220.766 6.42223 226 11.6566 226 18.1136V43.8172H6.78741V18.1136Z" fill="#00252E"/>
</g>
<rect x="28.8" y="19.2767" width="71.2441" height="14.0231" rx="2.92283" fill="#E1E8EE"/>
<rect x="183.911" y="20.4453" width="18.7061" height="2.33719" rx="1.16859" fill="#D8D8D8"/>
<rect x="183.911" y="25.1197" width="18.7061" height="2.33719" rx="1.16859" fill="#D8D8D8"/>
<rect x="183.911" y="29.7941" width="18.7061" height="2.33719" rx="1.16859" fill="#D8D8D8"/>
<ellipse cx="38.9843" cy="90.6431" rx="10.2756" ry="10.2708" fill="url(#paint0_linear_0_217)"/>
<rect x="60.2205" y="82.4264" width="39.3898" height="3.65185" rx="0.62997" fill="#E1E8EE"/>
<rect x="60.2205" y="89.7301" width="137.008" height="1.82593" rx="0.62997" fill="#E1E8EE"/>
<rect x="60.2205" y="93.382" width="125.591" height="1.82593" rx="0.62997" fill="#E1E8EE"/>
<rect x="60.2205" y="97.0338" width="114.173" height="1.82593" rx="0.62997" fill="#E1E8EE"/>
<ellipse cx="38.9843" cy="185.135" rx="10.2756" ry="10.2708" fill="url(#paint1_linear_0_217)"/>
<rect x="60.2205" y="176.918" width="39.3898" height="3.65185" rx="0.62997" fill="#E1E8EE"/>
<rect x="60.2205" y="184.222" width="137.008" height="1.82593" rx="0.62997" fill="#E1E8EE"/>
<rect x="60.2205" y="187.874" width="125.591" height="1.82593" rx="0.62997" fill="#E1E8EE"/>
<rect x="60.2205" y="191.525" width="114.173" height="1.82593" rx="0.62997" fill="#E1E8EE"/>
<rect x="60.2205" y="113.924" width="39.3898" height="3.65185" rx="0.62997" fill="#E1E8EE"/>
<rect x="60.2205" y="121.227" width="137.008" height="1.82593" rx="0.62997" fill="#E1E8EE"/>
<rect x="60.2205" y="124.879" width="125.591" height="1.82593" rx="0.62997" fill="#E1E8EE"/>
<rect x="60.2205" y="128.531" width="114.173" height="1.82593" rx="0.62997" fill="#E1E8EE"/>
<ellipse cx="38.9843" cy="122.14" rx="10.2756" ry="10.2708" fill="url(#paint2_linear_0_217)"/>
<rect x="60.2205" y="208.415" width="39.3898" height="3.65185" rx="0.62997" fill="#E1E8EE"/>
<rect x="60.2205" y="215.719" width="137.008" height="1.82593" rx="0.62997" fill="#E1E8EE"/>
<rect x="60.2205" y="219.371" width="125.591" height="1.82593" rx="0.62997" fill="#E1E8EE"/>
<rect x="60.2205" y="223.023" width="114.173" height="1.82593" rx="0.62997" fill="#E1E8EE"/>
<ellipse cx="38.9843" cy="216.632" rx="10.2756" ry="10.2708" fill="url(#paint3_linear_0_217)"/>
<rect x="60.2205" y="145.421" width="39.3898" height="3.65185" rx="0.62997" fill="#E1E8EE"/>
<rect x="60.2205" y="152.725" width="137.008" height="1.82593" rx="0.62997" fill="#E1E8EE"/>
<rect x="60.2205" y="156.376" width="125.591" height="1.82593" rx="0.62997" fill="#E1E8EE"/>
<rect x="60.2205" y="160.028" width="114.173" height="1.82593" rx="0.62997" fill="#E1E8EE"/>
<ellipse cx="38.9843" cy="153.637" rx="10.2756" ry="10.2708" fill="url(#paint4_linear_0_217)"/>
<rect x="60.2205" y="239.913" width="39.3898" height="3.65185" rx="0.62997" fill="#E1E8EE"/>
<rect x="60.2205" y="247.216" width="137.008" height="1.82593" rx="0.62997" fill="#E1E8EE"/>
<rect x="60.2205" y="250.868" width="125.591" height="1.82593" rx="0.62997" fill="#E1E8EE"/>
<rect x="60.2205" y="254.52" width="114.173" height="1.82593" rx="0.62997" fill="#E1E8EE"/>
<ellipse cx="38.9843" cy="248.129" rx="10.2756" ry="10.2708" fill="url(#paint5_linear_0_217)"/>
<ellipse cx="38.9843" cy="279.626" rx="10.2756" ry="10.2708" fill="url(#paint6_linear_0_217)"/>
<rect x="60.2205" y="271.41" width="39.3898" height="3.65185" rx="0.62997" fill="#E1E8EE"/>
<rect x="60.2205" y="278.713" width="137.008" height="1.82593" rx="0.62997" fill="#E1E8EE"/>
<rect x="60.2205" y="282.365" width="125.591" height="1.82593" rx="0.62997" fill="#E1E8EE"/>
<rect x="60.2205" y="286.017" width="114.173" height="1.82593" rx="0.62997" fill="#E1E8EE"/>
<rect x="60.2205" y="302.907" width="39.3898" height="3.65185" rx="0.62997" fill="#E1E8EE"/>
<rect x="60.2205" y="310.211" width="137.008" height="1.82593" rx="0.62997" fill="#E1E8EE"/>
<rect x="60.2205" y="313.862" width="125.591" height="1.82593" rx="0.62997" fill="#E1E8EE"/>
<rect x="60.2205" y="317.514" width="114.173" height="1.82593" rx="0.62997" fill="#E1E8EE"/>
<ellipse cx="38.9843" cy="311.124" rx="10.2756" ry="10.2708" fill="url(#paint7_linear_0_217)"/>
<defs>
<filter id="filter0_d_0_217" x="0.787415" y="0.422226" width="231.213" height="362.578" filterUnits="userSpaceOnUse" color-interpolation-filters="sRGB">
<feFlood flood-opacity="0" result="BackgroundImageFix"/>
<feColorMatrix in="SourceAlpha" type="matrix" values="0 0 0 0 0 0 0 0 0 0 0 0 0 0 0 0 0 0 127 0" result="hardAlpha"/>
<feOffset/>
<feGaussianBlur stdDeviation="3"/>
<feColorMatrix type="matrix" values="0 0 0 0 0 0 0 0 0 0.145098 0 0 0 0 0.180392 0 0 0 0.181839 0"/>
<feBlend mode="normal" in2="BackgroundImageFix" result="effect1_dropShadow_0_217"/>
<feBlend mode="normal" in="SourceGraphic" in2="effect1_dropShadow_0_217" result="shape"/>
</filter>
<filter id="filter1_d_0_217" x="0.787415" y="0.422226" width="231.213" height="49.395" filterUnits="userSpaceOnUse" color-interpolation-filters="sRGB">
<feFlood flood-opacity="0" result="BackgroundImageFix"/>
<feColorMatrix in="SourceAlpha" type="matrix" values="0 0 0 0 0 0 0 0 0 0 0 0 0 0 0 0 0 0 127 0" result="hardAlpha"/>
<feOffset/>
<feGaussianBlur stdDeviation="3"/>
<feColorMatrix type="matrix" values="0 0 0 0 0 0 0 0 0 0.145098 0 0 0 0 0.180392 0 0 0 0.181839 0"/>
<feBlend mode="normal" in2="BackgroundImageFix" result="effect1_dropShadow_0_217"/>
<feBlend mode="normal" in="SourceGraphic" in2="effect1_dropShadow_0_217" result="shape"/>
</filter>
<linearGradient id="paint0_linear_0_217" x1="17.1851" y1="82.0629" x2="29.7494" y2="111.189" gradientUnits="userSpaceOnUse">
<stop stop-color="#FAD961"/>
<stop offset="1" stop-color="#FF52C1"/>
</linearGradient>
<linearGradient id="paint1_linear_0_217" x1="17.1851" y1="176.555" x2="29.7494" y2="205.68" gradientUnits="userSpaceOnUse">
<stop stop-color="#FAD961"/>
<stop offset="1" stop-color="#FF52C1"/>
</linearGradient>
<linearGradient id="paint2_linear_0_217" x1="28.7087" y1="111.869" x2="28.7087" y2="132.411" gradientUnits="userSpaceOnUse">
<stop stop-color="#00C7FA"/>
<stop offset="1" stop-color="#007DFA"/>
</linearGradient>
<linearGradient id="paint3_linear_0_217" x1="28.7087" y1="206.361" x2="28.7087" y2="226.903" gradientUnits="userSpaceOnUse">
<stop stop-color="#00C7FA"/>
<stop offset="1" stop-color="#007DFA"/>
</linearGradient>
<linearGradient id="paint4_linear_0_217" x1="23.232" y1="149.655" x2="35.806" y2="172.511" gradientUnits="userSpaceOnUse">
<stop stop-color="#FF52C1"/>
<stop offset="1" stop-color="#9952FF"/>
</linearGradient>
<linearGradient id="paint5_linear_0_217" x1="23.232" y1="244.147" x2="35.806" y2="267.003" gradientUnits="userSpaceOnUse">
<stop stop-color="#FF52C1"/>
<stop offset="1" stop-color="#9952FF"/>
</linearGradient>
<linearGradient id="paint6_linear_0_217" x1="17.1851" y1="271.046" x2="29.7494" y2="300.172" gradientUnits="userSpaceOnUse">
<stop stop-color="#FAD961"/>
<stop offset="1" stop-color="#FF52C1"/>
</linearGradient>
<linearGradient id="paint7_linear_0_217" x1="28.7087" y1="300.853" x2="28.7087" y2="321.394" gradientUnits="userSpaceOnUse">
<stop stop-color="#00C7FA"/>
<stop offset="1" stop-color="#007DFA"/>
</linearGradient>
</defs>
</svg>
